<?xml version="1.0" encoding="utf-8"?>
<svg xmlns="http://www.w3.org/2000/svg" viewBox="0 0 500 500">
  <path d="M 247.881 490.576 C 378.448 490.576 484.285 464.019 484.285 431.265 C 484.285 409.928 445.302 391.229 377.903 380.775 L 283.343 75.393 L 141.499 16.082 L 176.96 105.049 L 117.859 380.775 C 50.471 391.229 11.477 409.928 11.477 431.265 C 11.477 464.019 117.327 490.576 247.881 490.576 Z" stroke="#000000" stroke-width="4" stroke-linecap="round" stroke-linejoin="round" style="stroke-width: 4;"/>
  <path d="M 342.555 257.251 C 342.532 257.237 342.532 257.208 342.507 257.194 C 342.46 256.841 342.263 256.487 342.021 256.147 C 341.948 256.062 341.875 255.991 341.803 255.905 C 341.706 255.806 341.634 255.707 341.537 255.608 C 341.341 255.438 341.075 255.283 340.832 255.141 C 340.759 255.113 340.736 255.07 340.664 255.042 C 340.225 254.801 339.692 254.631 339.133 254.475 C 338.99 254.449 338.855 254.414 338.721 254.376 C 338.112 254.253 337.47 254.185 336.827 254.178 L 298.705 253.178 C 297.952 253.178 297.272 253.277 296.594 253.432 C 296.401 253.475 296.256 253.532 296.037 253.589 C 295.576 253.744 295.139 253.915 294.75 254.126 C 294.678 254.184 294.533 254.211 294.435 254.269 C 294.362 254.31 294.337 254.368 294.313 254.41 C 293.925 254.679 293.635 254.977 293.391 255.316 C 293.343 255.373 293.27 255.43 293.221 255.5 C 293.221 255.514 293.197 255.529 293.197 255.543 L 248.201 355.671 L 198.18 260.543 C 198.18 260.529 198.156 260.514 198.156 260.5 C 198.107 260.43 198.034 260.373 197.986 260.316 C 197.77 259.988 197.465 259.682 197.088 259.41 C 197.015 259.368 196.99 259.31 196.942 259.269 C 196.844 259.211 196.699 259.184 196.626 259.126 C 196.238 258.915 195.825 258.73 195.365 258.589 C 195.169 258.532 195 258.475 194.805 258.432 C 194.126 258.277 193.446 258.178 192.694 258.178 L 145.572 263.178 C 144.916 263.178 144.31 263.263 143.678 263.376 C 143.557 263.405 143.412 263.432 143.267 263.475 C 142.683 263.631 142.174 263.801 141.712 264.042 C 141.639 264.085 141.616 264.113 141.566 264.141 C 141.301 264.297 141.058 264.438 140.839 264.608 C 140.718 264.707 140.668 264.806 140.573 264.905 C 140.5 264.991 140.403 265.062 140.353 265.147 C 140.111 265.487 139.941 265.826 139.843 266.194 C 139.843 266.208 139.82 266.237 139.82 266.251 L 111.311 380.818 C 111.166 381.752 111.724 382.673 112.792 383.367 C 113.883 384.047 115.438 384.458 117.014 384.458 L 168.763 406.458 C 171.725 406.458 174.176 405.154 174.492 403.426 L 184.661 343.095 L 223.857 404.277 C 223.882 404.291 223.905 404.304 223.93 404.333 C 224.101 404.602 224.343 404.871 224.634 405.097 L 224.707 405.14 C 224.755 405.196 224.876 405.239 224.926 405.282 C 225.216 405.466 225.507 405.622 225.824 405.778 L 226.26 405.948 C 226.576 406.061 226.916 406.146 227.231 406.231 C 227.868 406.383 228.553 406.466 229.245 406.471 L 267.132 406.471 C 267.665 406.471 268.2 406.415 268.709 406.33 C 268.855 406.301 269.001 406.273 269.146 406.231 C 269.509 406.16 269.826 406.061 270.116 405.948 C 270.262 405.89 270.407 405.834 270.528 405.778 C 270.869 405.636 271.135 405.466 271.426 405.282 C 271.499 405.225 271.597 405.183 271.67 405.14 C 271.67 405.126 271.718 405.112 271.743 405.097 C 272.033 404.857 272.276 404.602 272.47 404.333 C 272.47 404.318 272.495 404.304 272.52 404.277 L 311.714 343.095 L 321.907 403.44 C 322.191 405.155 324.658 406.467 327.611 406.471 L 375.335 388.471 C 376.937 388.471 378.492 387.074 379.559 386.381 C 380.652 385.687 381.186 384.766 381.063 383.831 L 342.555 257.251 Z" fill="#ffab00" style="stroke-width: 1;"/>
</svg>